# xmcd
#
# Track frame offsets: 
#        150
#        12912
#        26592
#        39955
#        52712
#        67267
#        81055
#        95210
#        123122
#        139190
#        157645
#        172317
#        191160
#        204810
#        221877
#        238247
#
# Disc length: 3370 seconds
#
# Revision: 0
# Processed by: cddbd v1.5.2PL0 Copyright (c) Steve Scherf et al.
# Submitted via: ExactAudioCopy v0.99pb4
#
DISCID=dc0d2810
DTITLE=B.B. King - B.B. King - P-Vine Presents 21 Blues Giants 
DYEAR=1900
DGENRE=Blues
TTITLE0=Everyday I Have The Blues
TTITLE1=Three O'Clock Blues
TTITLE2=Woke Up This Morning
TTITLE3=Please Love Me
TTITLE4=Sweet Little Angel
TTITLE5=You Upset Me Baby
TTITLE6=Whole Lotta' Love
TTITLE7=Sweet Sixteen
TTITLE8=My Own Fault Baby
TTITLE9=My Sometimes Baby
TTITLE10=Got A Right To Love My Baby
TTITLE11=You're Breaking My Heart
TTITLE12=Rock Me Baby
TTITLE13=Blue Shadows
TTITLE14=Your Fool
TTITLE15=The Jungle
EXTD=
EXTT0=
EXTT1=
EXTT2=
EXTT3=
EXTT4=
EXTT5=
EXTT6=
EXTT7=
EXTT8=
EXTT9=
EXTT10=
EXTT11=
EXTT12=
EXTT13=
EXTT14=
EXTT15=
PLAYORDER=
